#!OML:ASF I:\Actors\actors\Patient Classification 2\Patient 1\Session 1\actor1.ASF
:FULLY-SPECIFIED
:DEGREES
472
root -0.0288855 18.2646 4.19064 -0.360271 -14.2311 -3.13046
lowerback 20.1966 0.87015 0.530824
upperback 7.01993 1.17787 0.272758
thorax -3.69317 0.551191 -0.277884
lowerneck -14.8841 7.84795 12.1052
upperneck 8.29056 9.0587 -7.82253
head 5.83247 4.28041 -3.51846
rclavicle 3.24019e-014 -7.95139e-015
rhumerus -42.2531 44.7176 -120.299
rradius 131.374
rwrist 13.8458
rhand -23.2518 -24.162
rfingers 7.12502
rthumb 3.19995 -54.1177
lclavicle 3.24019e-014 -7.95139e-015
lhumerus -37.4915 -32.0241 115.363
lradius 121.235
lwrist 10.8109
lhand -19.0079 -37.6294
lfingers 7.12502
lthumb 7.29756 -7.77523
rfemur -11.4957 10.8098 15.2978
rtibia 24.3994
rfoot -17.1873 -6.02318
rtoes -13.3842
lfemur -16.1491 4.74498 -12.7576
ltibia 38.9353
lfoot -23.6236 12.0924
ltoes -53.7908
473
root -0.078685 18.261 4.1741 -0.2323 -13.7542 -3.40457
lowerback 20.4172 0.882402 0.816403
upperback 6.97907 1.25495 0.318897
thorax -3.84424 0.590594 -0.412655
lowerneck -15.1261 8.04197 12.1232
upperneck 8.62723 9.32671 -7.9905
head 6.01525 4.39474 -3.53299
rclavicle -2.00773e-014 -2.18663e-014
rhumerus -42.4173 44.7124 -120.392
rradius 131.42
rwrist 14.0198
rhand -23.3791 -23.7847
rfingers 7.12502
rthumb 3.07698 -53.7422
lclavicle -2.00773e-014 -2.18663e-014
lhumerus -37.8263 -32.3303 115.932
lradius 121.218
lwrist 10.8335
lhand -19.4587 -37.3312
lfingers 7.12502
lthumb 6.8624 -7.46238
rfemur -11.5525 10.4628 15.7718
rtibia 24.5024
rfoot -17.368 -6.403
rtoes -13.77
lfemur -16.3462 4.42805 -12.2912
ltibia 38.9516
lfoot -23.4966 11.9093
ltoes -53.897
474
root -0.136514 18.2619 4.17483 -0.375046 -13.0224 -3.38737
lowerback 20.5333 0.814279 0.853914
upperback 7.06492 1.17547 0.305181
thorax -3.8113 0.553221 -0.431222
lowerneck -15.3198 8.27882 12.1752
upperneck 8.86583 9.65431 -8.20249
head 6.17008 4.53573 -3.56088
rclavicle 1.83876e-014 9.14409e-015
rhumerus -42.536 44.7901 -120.477
rradius 131.417
rwrist 14.1047
rhand -23.4798 -23.4429
rfingers 7.12502
rthumb 2.97978 -53.4018
lclavicle 1.83876e-014 9.14409e-015
lhumerus -38.0429 -32.605 116.402
lradius 121.132
lwrist 10.9714
lhand -19.8828 -37.2391
lfingers 7.12502
lthumb 6.45298 -7.35736
rfemur -11.2654 9.71864 15.9869
rtibia 24.6021
rfoot -17.632 -6.56377
rtoes -14.0739
lfemur -16.2581 3.94048 -12.1301
ltibia 38.9119
lfoot -23.3668 11.6694
ltoes -54.123
475
root -0.196854 18.2622 4.17427 -0.536588 -12.3782 -3.30098
lowerback 20.6471 0.772672 0.873495
upperback 7.148 1.12532 0.263472
thorax -3.77953 0.530374 -0.476114
lowerneck -15.3512 8.52361 12.1466
upperneck 8.9732 10.016 -8.35757
head 6.25387 4.69767 -3.55878
rclavicle -1.59028e-014 6.75868e-015
rhumerus -42.5768 44.9161 -120.542
rradius 131.326
rwrist 14.2727
rhand -23.5854 -23.2596
rfingers 7.12502
rthumb 2.8778 -53.2199
lclavicle -1.59028e-014 6.75868e-015
lhumerus -38.2077 -32.9018 116.807
lradius 121.038
lwrist 11.1146
lhand -20.1798 -37.2269
lfingers 7.12502
lthumb 6.16619 -7.33665
rfemur -11.0325 8.96209 16.1407
rtibia 24.7496
rfoot -17.8989 -6.62065
rtoes -14.0181
lfemur -16.1419 3.48012 -12.039
ltibia 38.8294
lfoot -23.2463 11.5178
ltoes -54.385
476
root -0.25941 18.2604 4.16731 -0.576821 -11.9188 -3.34519
lowerback 20.7411 0.809691 0.994792
upperback 7.17354 1.19978 0.266689
thorax -3.79646 0.568623 -0.560208
lowerneck -15.2712 8.74318 12.1522
upperneck 9.06159 10.3517 -8.52738
head 6.31396 4.8497 -3.57295
rclavicle -7.35503e-015 3.97569e-016
rhumerus -42.5365 44.9533 -120.52
rradius 131.184
rwrist 14.6212
rhand -23.5368 -23.0803
rfingers 7.12502
rthumb 2.92469 -53.04
lclavicle -7.35503e-015 3.97569e-016
lhumerus -38.4241 -33.2322 117.248
lradius 120.953
lwrist 11.1779
lhand -20.3169 -37.1657
lfingers 7.12502
lthumb 6.03385 -7.27162
rfemur -10.9991 8.38736 16.4406
rtibia 24.9621
rfoot -18.093 -6.68983
rtoes -14.0571
lfemur -16.1191 3.08994 -11.7933
ltibia 38.727
lfoot -23.1553 11.4431
ltoes -54.559
477
root -0.326352 18.2569 4.1589 -0.623163 -11.3865 -3.3808
lowerback 20.8375 0.820025 1.02491
upperback 7.19633 1.22331 0.288331
thorax -3.82065 0.580981 -0.561135
lowerneck -15.1708 9.01234 12.3032
upperneck 9.16415 10.7382 -8.7703
head 6.39364 5.02637 -3.62619
rclavicle 6.75868e-015 1.98785e-016
rhumerus -42.5136 44.9946 -120.476
rradius 131.129
rwrist 14.7419
rhand -23.418 -22.908
rfingers 7.12502
rthumb 3.03939 -52.8661
lclavicle 6.75868e-015 1.98785e-016
lhumerus -38.5828 -33.5134 117.585
lradius 120.886
lwrist 11.188
lhand -20.4191 -36.9673
lfingers 7.12502
lthumb 5.93521 -7.07041
rfemur -10.9676 7.85531 16.7401
rtibia 25.2192
rfoot -18.3162 -6.78992
rtoes -14.4455
lfemur -16.1314 2.66937 -11.5358
ltibia 38.6492
lfoot -23.0294 11.2806
ltoes -54.6687
478
root -0.397622 18.2523 4.15015 -0.680465 -10.7965 -3.4165
lowerback 20.96 0.801865 1.00414
upperback 7.20904 1.2006 0.31047
thorax -3.87089 0.570097 -0.522292
lowerneck -15.0501 9.34902 12.5214
upperneck 9.22182 11.2052 -9.02773
head 6.47062 5.24356 -3.68384
rclavicle -5.76476e-015 -3.37934e-015
rhumerus -42.4918 45.0776 -120.474
rradius 131.111
rwrist 14.7045
rhand -23.3378 -22.8749
rfingers 7.12502
rthumb 3.11684 -52.8319
lclavicle -5.76476e-015 -3.37934e-015
lhumerus -38.6997 -33.7673 117.83
lradius 120.834
lwrist 11.2568
lhand -20.4981 -36.8041
lfingers 7.12502
lthumb 5.85892 -6.90512
rfemur -10.9246 7.36633 17.0473
rtibia 25.4971
rfoot -18.6011 -6.92709
rtoes -14.7703
lfemur -16.165 2.20665 -11.2589
ltibia 38.6087
lfoot -22.8976 11.0828
ltoes -54.7178
479
root -0.47375 18.2492 4.1433 -0.703633 -10.2228 -3.49774
lowerback 21.1494 0.797913 1.0805
upperback 7.13137 1.21682 0.311189
thorax -4.04926 0.578286 -0.572758
lowerneck -14.8909 9.68021 12.7269
upperneck 9.36317 11.657 -9.13868
head 6.55807 5.46443 -3.69372
rclavicle 2.28602e-015 8.94531e-015
rhumerus -42.6093 45.0132 -120.654
rradius 131.092
rwrist 14.8629
rhand -23.1449 -22.8643
rfingers 7.12502
rthumb 3.30316 -52.8185
lclavicle 2.28602e-015 8.94531e-015
lhumerus -38.9846 -34.0506 118.144
lradius 120.796
lwrist 11.3325
lhand -20.6083 -36.8072
lfingers 7.12502
lthumb 5.75257 -6.90532
rfemur -10.919 6.89809 17.4214
rtibia 25.8034
rfoot -18.918 -7.05776
rtoes -14.7769
lfemur -16.2333 1.73329 -10.917
ltibia 38.6057
lfoot -22.8061 10.9262
ltoes -54.7345
480
root -0.546081 18.2455 4.13443 -0.709748 -9.81864 -3.57025
lowerback 21.327 0.827766 1.22509
upperback 7.06083 1.28824 0.281199
thorax -4.21057 0.613801 -0.708087
lowerneck -14.7537 10.0314 12.9286
upperneck 9.54765 12.1372 -9.24381
head 6.667 5.69829 -3.69473
rclavicle -1.95803e-014 7.95139e-016
rhumerus -42.8208 44.9701 -120.839
rradius 131.157
rwrist 14.9976
rhand -23.0172 -22.8192
rfingers 7.12502
rthumb 3.4265 -52.7714
lclavicle -1.95803e-014 7.95139e-016
lhumerus -39.1659 -34.3568 118.401
lradius 120.755
lwrist 11.3242
lhand -20.7518 -36.865
lfingers 7.12502
lthumb 5.61403 -6.95937
rfemur -10.9786 6.45683 17.7662
rtibia 26.086
rfoot -19.1581 -7.06964
rtoes -14.4544
lfemur -16.3141 1.36858 -10.6112
ltibia 38.607
lfoot -22.6817 10.9305
ltoes -54.8418
